# Blender v2.92.0 OBJ File: ''
# www.blender.org
mtllib reticle.mtl
o Reticle_Cylinder
v -0.000000 -0.000000 -0.899921
v -0.000000 0.199999 -0.899921
v 0.175566 -0.000000 -0.882630
v 0.175566 0.199999 -0.882630
v 0.344385 -0.000000 -0.831419
v 0.344385 0.199999 -0.831419
v 0.499969 -0.000000 -0.748257
v 0.499969 0.199999 -0.748257
v 0.636340 -0.000000 -0.636340
v 0.636340 0.199999 -0.636340
v 0.748257 -0.000000 -0.499969
v 0.748257 0.199999 -0.499969
v 0.831419 -0.000000 -0.344385
v 0.831419 0.199999 -0.344385
v 0.882629 -0.000000 -0.175566
v 0.882629 0.199999 -0.175566
v 0.899921 -0.000000 -0.000000
v 0.899921 0.199999 -0.000000
v 0.882630 -0.000000 0.175566
v 0.882630 0.199999 0.175566
v 0.831419 -0.000000 0.344385
v 0.831419 0.199999 0.344385
v 0.748257 -0.000000 0.499969
v 0.748257 0.199999 0.499969
v 0.636340 -0.000000 0.636340
v 0.636340 0.199999 0.636340
v 0.499969 -0.000000 0.748257
v 0.499969 0.199999 0.748257
v 0.344385 -0.000000 0.831419
v 0.344385 0.199999 0.831419
v 0.175566 -0.000000 0.882630
v 0.175566 0.199999 0.882630
v -0.000000 -0.000000 0.899921
v -0.000000 0.199999 0.899921
v -0.175566 -0.000000 0.882629
v -0.175566 0.199999 0.882629
v -0.344385 -0.000000 0.831419
v -0.344385 0.199999 0.831419
v -0.499970 -0.000000 0.748257
v -0.499970 0.199999 0.748257
v -0.636341 -0.000000 0.636340
v -0.636341 0.199999 0.636340
v -0.748258 -0.000000 0.499969
v -0.748258 0.199999 0.499969
v -0.831419 -0.000000 0.344384
v -0.831419 0.199999 0.344384
v -0.882630 -0.000000 0.175565
v -0.882630 0.199999 0.175565
v -0.899921 -0.000000 -0.000001
v -0.899921 0.199999 -0.000001
v -0.882629 -0.000000 -0.175567
v -0.882629 0.199999 -0.175567
v -0.831419 -0.000000 -0.344386
v -0.831419 0.199999 -0.344386
v -0.748257 -0.000000 -0.499970
v -0.748257 0.199999 -0.499970
v -0.636340 -0.000000 -0.636341
v -0.636340 0.199999 -0.636341
v -0.499968 -0.000000 -0.748258
v -0.499968 0.199999 -0.748258
v -0.344384 -0.000000 -0.831419
v -0.344384 0.199999 -0.831419
v -0.175565 -0.000000 -0.882630
v -0.175565 0.199999 -0.882630
v -0.000000 -0.000000 -1.000000
v 0.195090 -0.000000 -0.980785
v 0.195090 0.199999 -0.980785
v -0.000000 0.199999 -1.000000
v 0.382683 -0.000000 -0.923880
v 0.382683 0.199999 -0.923880
v 0.555570 -0.000000 -0.831470
v 0.555570 0.199999 -0.831470
v 0.707107 -0.000000 -0.707107
v 0.707107 0.199999 -0.707107
v 0.831470 -0.000000 -0.555570
v 0.831470 0.199999 -0.555570
v 0.923879 -0.000000 -0.382683
v 0.923879 0.199999 -0.382683
v 0.980785 -0.000000 -0.195090
v 0.980785 0.199999 -0.195090
v 1.000000 -0.000000 -0.000000
v 1.000000 0.199999 -0.000000
v 0.980785 -0.000000 0.195090
v 0.980785 0.199999 0.195090
v 0.923880 -0.000000 0.382683
v 0.923880 0.199999 0.382683
v 0.831470 -0.000000 0.555570
v 0.831470 0.199999 0.555570
v 0.707107 -0.000000 0.707107
v 0.707107 0.199999 0.707107
v 0.555570 -0.000000 0.831470
v 0.555570 0.199999 0.831470
v 0.382683 -0.000000 0.923880
v 0.382683 0.199999 0.923880
v 0.195090 -0.000000 0.980785
v 0.195090 0.199999 0.980785
v -0.000000 -0.000000 1.000000
v -0.000000 0.199999 1.000000
v -0.195091 -0.000000 0.980785
v -0.195091 0.199999 0.980785
v -0.382684 -0.000000 0.923879
v -0.382684 0.199999 0.923879
v -0.555571 -0.000000 0.831469
v -0.555571 0.199999 0.831469
v -0.707107 -0.000000 0.707106
v -0.707107 0.199999 0.707106
v -0.831470 -0.000000 0.555570
v -0.831470 0.199999 0.555570
v -0.923880 -0.000000 0.382683
v -0.923880 0.199999 0.382683
v -0.980785 -0.000000 0.195089
v -0.980785 0.199999 0.195089
v -1.000000 -0.000000 -0.000001
v -1.000000 0.199999 -0.000001
v -0.980785 -0.000000 -0.195091
v -0.980785 0.199999 -0.195091
v -0.923879 -0.000000 -0.382684
v -0.923879 0.199999 -0.382684
v -0.831469 -0.000000 -0.555571
v -0.831469 0.199999 -0.555571
v -0.707106 -0.000000 -0.707108
v -0.707106 0.199999 -0.707108
v -0.555569 -0.000000 -0.831470
v -0.555569 0.199999 -0.831470
v -0.382682 -0.000000 -0.923880
v -0.382682 0.199999 -0.923880
v -0.195089 -0.000000 -0.980786
v -0.195089 0.199999 -0.980786
vt 1.000000 0.500000
vt 1.000000 1.000000
vt 0.968750 1.000000
vt 0.968750 0.500000
vt 0.937500 1.000000
vt 0.937500 0.500000
vt 0.906250 1.000000
vt 0.906250 0.500000
vt 0.875000 1.000000
vt 0.875000 0.500000
vt 0.843750 1.000000
vt 0.843750 0.500000
vt 0.812500 1.000000
vt 0.812500 0.500000
vt 0.781250 1.000000
vt 0.781250 0.500000
vt 0.750000 1.000000
vt 0.750000 0.500000
vt 0.718750 1.000000
vt 0.718750 0.500000
vt 0.687500 1.000000
vt 0.687500 0.500000
vt 0.656250 1.000000
vt 0.656250 0.500000
vt 0.625000 1.000000
vt 0.625000 0.500000
vt 0.593750 1.000000
vt 0.593750 0.500000
vt 0.562500 1.000000
vt 0.562500 0.500000
vt 0.531250 1.000000
vt 0.531250 0.500000
vt 0.500000 1.000000
vt 0.500000 0.500000
vt 0.468750 1.000000
vt 0.468750 0.500000
vt 0.437500 1.000000
vt 0.437500 0.500000
vt 0.406250 1.000000
vt 0.406250 0.500000
vt 0.375000 1.000000
vt 0.375000 0.500000
vt 0.343750 1.000000
vt 0.343750 0.500000
vt 0.312500 1.000000
vt 0.312500 0.500000
vt 0.281250 1.000000
vt 0.281250 0.500000
vt 0.250000 1.000000
vt 0.250000 0.500000
vt 0.218750 1.000000
vt 0.218750 0.500000
vt 0.187500 1.000000
vt 0.187500 0.500000
vt 0.156250 1.000000
vt 0.156250 0.500000
vt 0.125000 1.000000
vt 0.125000 0.500000
vt 0.093750 1.000000
vt 0.093750 0.500000
vt 0.062500 1.000000
vt 0.062500 0.500000
vt 0.707864 0.461831
vt 0.750000 0.465981
vt 0.250000 0.465981
vt 0.207865 0.461831
vt 0.031250 1.000000
vt 0.031250 0.500000
vt 0.000000 1.000000
vt 0.000000 0.500000
vt 0.667348 0.449541
vt 0.167348 0.449541
vt 0.792136 0.461831
vt 0.750000 0.490000
vt 0.796822 0.485388
vt 0.292136 0.461831
vt 0.296822 0.485388
vt 0.250000 0.490000
vt 0.832652 0.449540
vt 0.841844 0.471731
vt 0.332652 0.449540
vt 0.341844 0.471731
vt 0.869993 0.429582
vt 0.883337 0.449553
vt 0.369993 0.429582
vt 0.383337 0.449553
vt 0.902722 0.402722
vt 0.919706 0.419706
vt 0.402722 0.402722
vt 0.419706 0.419706
vt 0.929582 0.369993
vt 0.949553 0.383337
vt 0.429582 0.369993
vt 0.449553 0.383337
vt 0.949540 0.332652
vt 0.971731 0.341844
vt 0.449540 0.332652
vt 0.471731 0.341844
vt 0.961831 0.292136
vt 0.985388 0.296822
vt 0.461831 0.292136
vt 0.485388 0.296822
vt 0.965981 0.250000
vt 0.990000 0.250000
vt 0.465981 0.250000
vt 0.490000 0.250000
vt 0.961831 0.207864
vt 0.985388 0.203178
vt 0.461831 0.207864
vt 0.485388 0.203178
vt 0.949540 0.167348
vt 0.971731 0.158156
vt 0.449541 0.167348
vt 0.471731 0.158156
vt 0.929582 0.130007
vt 0.949553 0.116663
vt 0.429582 0.130007
vt 0.449553 0.116663
vt 0.902722 0.097278
vt 0.919706 0.080294
vt 0.402722 0.097278
vt 0.419706 0.080294
vt 0.869993 0.070418
vt 0.883337 0.050447
vt 0.369993 0.070418
vt 0.383337 0.050447
vt 0.832652 0.050459
vt 0.841844 0.028269
vt 0.332652 0.050459
vt 0.341844 0.028269
vt 0.792136 0.038169
vt 0.796822 0.014612
vt 0.292136 0.038169
vt 0.296822 0.014612
vt 0.750000 0.034019
vt 0.750000 0.010000
vt 0.250000 0.034019
vt 0.250000 0.010000
vt 0.707864 0.038169
vt 0.703178 0.014612
vt 0.207864 0.038169
vt 0.203178 0.014612
vt 0.667348 0.050460
vt 0.658156 0.028269
vt 0.167348 0.050460
vt 0.158156 0.028269
vt 0.630007 0.070418
vt 0.616663 0.050447
vt 0.130007 0.070418
vt 0.116663 0.050447
vt 0.597278 0.097278
vt 0.580294 0.080294
vt 0.097278 0.097278
vt 0.080294 0.080294
vt 0.570418 0.130007
vt 0.550447 0.116663
vt 0.070418 0.130007
vt 0.050447 0.116663
vt 0.550459 0.167348
vt 0.528269 0.158156
vt 0.050459 0.167348
vt 0.028269 0.158156
vt 0.538169 0.207864
vt 0.514611 0.203179
vt 0.038169 0.207864
vt 0.014611 0.203179
vt 0.534019 0.250000
vt 0.510000 0.250000
vt 0.034019 0.250000
vt 0.010000 0.250000
vt 0.538169 0.292136
vt 0.514612 0.296822
vt 0.038169 0.292136
vt 0.014612 0.296822
vt 0.550460 0.332653
vt 0.528269 0.341844
vt 0.050460 0.332653
vt 0.028269 0.341844
vt 0.570418 0.369993
vt 0.550447 0.383337
vt 0.070418 0.369993
vt 0.050447 0.383337
vt 0.597279 0.402722
vt 0.580295 0.419706
vt 0.097279 0.402722
vt 0.080295 0.419706
vt 0.630008 0.429582
vt 0.616663 0.449553
vt 0.130008 0.429582
vt 0.116663 0.449553
vt 0.658156 0.471731
vt 0.158156 0.471731
vt 0.703179 0.485389
vt 0.203179 0.485389
vn 0.0000 0.0000 -1.0000
vn 0.1951 0.0000 -0.9808
vn 0.3827 0.0000 -0.9239
vn 0.5556 0.0000 -0.8315
vn 0.7071 0.0000 -0.7071
vn 0.8315 0.0000 -0.5556
vn 0.9239 0.0000 -0.3827
vn 0.9808 0.0000 -0.1951
vn 1.0000 0.0000 -0.0000
vn 0.9808 0.0000 0.1951
vn 0.9239 0.0000 0.3827
vn 0.8315 0.0000 0.5556
vn 0.7071 0.0000 0.7071
vn 0.5556 0.0000 0.8315
vn 0.3827 0.0000 0.9239
vn 0.1951 0.0000 0.9808
vn -0.0000 0.0000 1.0000
vn -0.1951 0.0000 0.9808
vn -0.3827 0.0000 0.9239
vn -0.5556 0.0000 0.8315
vn -0.7071 0.0000 0.7071
vn -0.8315 0.0000 0.5556
vn -0.9239 0.0000 0.3827
vn -0.9808 0.0000 0.1951
vn -1.0000 0.0000 -0.0000
vn -0.9808 0.0000 -0.1951
vn -0.9239 0.0000 -0.3827
vn -0.8315 0.0000 -0.5556
vn -0.7071 0.0000 -0.7071
vn -0.5556 0.0000 -0.8315
vn -0.3827 0.0000 -0.9239
vn -0.1951 0.0000 -0.9808
vn -0.0000 -1.0000 0.0000
vn 0.0000 1.0000 -0.0000
usemtl None
s 1
f 65/1/1 68/2/1 67/3/2 66/4/2
f 66/4/2 67/3/2 70/5/3 69/6/3
f 69/6/3 70/5/3 72/7/4 71/8/4
f 71/8/4 72/7/4 74/9/5 73/10/5
f 73/10/5 74/9/5 76/11/6 75/12/6
f 75/12/6 76/11/6 78/13/7 77/14/7
f 77/14/7 78/13/7 80/15/8 79/16/8
f 79/16/8 80/15/8 82/17/9 81/18/9
f 81/18/9 82/17/9 84/19/10 83/20/10
f 83/20/10 84/19/10 86/21/11 85/22/11
f 85/22/11 86/21/11 88/23/12 87/24/12
f 87/24/12 88/23/12 90/25/13 89/26/13
f 89/26/13 90/25/13 92/27/14 91/28/14
f 91/28/14 92/27/14 94/29/15 93/30/15
f 93/30/15 94/29/15 96/31/16 95/32/16
f 95/32/16 96/31/16 98/33/17 97/34/17
f 97/34/17 98/33/17 100/35/18 99/36/18
f 99/36/18 100/35/18 102/37/19 101/38/19
f 101/38/19 102/37/19 104/39/20 103/40/20
f 103/40/20 104/39/20 106/41/21 105/42/21
f 105/42/21 106/41/21 108/43/22 107/44/22
f 107/44/22 108/43/22 110/45/23 109/46/23
f 109/46/23 110/45/23 112/47/24 111/48/24
f 111/48/24 112/47/24 114/49/25 113/50/25
f 113/50/25 114/49/25 116/51/26 115/52/26
f 115/52/26 116/51/26 118/53/27 117/54/27
f 117/54/27 118/53/27 120/55/28 119/56/28
f 119/56/28 120/55/28 122/57/29 121/58/29
f 121/58/29 122/57/29 124/59/30 123/60/30
f 123/60/30 124/59/30 126/61/31 125/62/31
f 63/63/16 1/64/17 2/65/17 64/66/16
f 125/62/31 126/61/31 128/67/32 127/68/32
f 127/68/32 128/67/32 68/69/1 65/70/1
f 61/71/15 63/63/16 64/66/16 62/72/15
f 3/73/33 1/64/33 65/74/33 66/75/33
f 2/65/34 4/76/34 67/77/34 68/78/34
f 5/79/33 3/73/33 66/75/33 69/80/33
f 4/76/34 6/81/34 70/82/34 67/77/34
f 7/83/33 5/79/33 69/80/33 71/84/33
f 6/81/34 8/85/34 72/86/34 70/82/34
f 9/87/33 7/83/33 71/84/33 73/88/33
f 8/85/34 10/89/34 74/90/34 72/86/34
f 11/91/33 9/87/33 73/88/33 75/92/33
f 10/89/34 12/93/34 76/94/34 74/90/34
f 13/95/33 11/91/33 75/92/33 77/96/33
f 12/93/34 14/97/34 78/98/34 76/94/34
f 15/99/33 13/95/33 77/96/33 79/100/33
f 14/97/34 16/101/34 80/102/34 78/98/34
f 17/103/33 15/99/33 79/100/33 81/104/33
f 16/101/34 18/105/34 82/106/34 80/102/34
f 19/107/33 17/103/33 81/104/33 83/108/33
f 18/105/34 20/109/34 84/110/34 82/106/34
f 21/111/33 19/107/33 83/108/33 85/112/33
f 20/109/34 22/113/34 86/114/34 84/110/34
f 23/115/33 21/111/33 85/112/33 87/116/33
f 22/113/34 24/117/34 88/118/34 86/114/34
f 25/119/33 23/115/33 87/116/33 89/120/33
f 24/117/34 26/121/34 90/122/34 88/118/34
f 27/123/33 25/119/33 89/120/33 91/124/33
f 26/121/34 28/125/34 92/126/34 90/122/34
f 29/127/33 27/123/33 91/124/33 93/128/33
f 28/125/34 30/129/34 94/130/34 92/126/34
f 31/131/33 29/127/33 93/128/33 95/132/33
f 30/129/34 32/133/34 96/134/34 94/130/34
f 33/135/33 31/131/33 95/132/33 97/136/33
f 32/133/34 34/137/34 98/138/34 96/134/34
f 35/139/33 33/135/33 97/136/33 99/140/33
f 34/137/34 36/141/34 100/142/34 98/138/34
f 37/143/33 35/139/33 99/140/33 101/144/33
f 36/141/34 38/145/34 102/146/34 100/142/34
f 39/147/33 37/143/33 101/144/33 103/148/33
f 38/145/34 40/149/34 104/150/34 102/146/34
f 41/151/33 39/147/33 103/148/33 105/152/33
f 40/149/34 42/153/34 106/154/34 104/150/34
f 43/155/33 41/151/33 105/152/33 107/156/33
f 42/153/34 44/157/34 108/158/34 106/154/34
f 45/159/33 43/155/33 107/156/33 109/160/33
f 44/157/34 46/161/34 110/162/34 108/158/34
f 47/163/33 45/159/33 109/160/33 111/164/33
f 46/161/34 48/165/34 112/166/34 110/162/34
f 49/167/33 47/163/33 111/164/33 113/168/33
f 48/165/34 50/169/34 114/170/34 112/166/34
f 51/171/33 49/167/33 113/168/33 115/172/33
f 50/169/34 52/173/34 116/174/34 114/170/34
f 53/175/33 51/171/33 115/172/33 117/176/33
f 52/173/34 54/177/34 118/178/34 116/174/34
f 55/179/33 53/175/33 117/176/33 119/180/33
f 54/177/34 56/181/34 120/182/34 118/178/34
f 57/183/33 55/179/33 119/180/33 121/184/33
f 56/181/34 58/185/34 122/186/34 120/182/34
f 59/187/33 57/183/33 121/184/33 123/188/33
f 58/185/34 60/189/34 124/190/34 122/186/34
f 61/71/33 59/187/33 123/188/33 125/191/33
f 60/189/34 62/72/34 126/192/34 124/190/34
f 63/63/33 61/71/33 125/191/33 127/193/33
f 62/72/34 64/66/34 128/194/34 126/192/34
f 1/64/33 63/63/33 127/193/33 65/74/33
f 64/66/34 2/65/34 68/78/34 128/194/34
f 1/64/17 3/73/18 4/76/18 2/65/17
f 3/73/18 5/79/19 6/81/19 4/76/18
f 5/79/19 7/83/20 8/85/20 6/81/19
f 7/83/20 9/87/21 10/89/21 8/85/20
f 9/87/21 11/91/22 12/93/22 10/89/21
f 11/91/22 13/95/23 14/97/23 12/93/22
f 13/95/23 15/99/24 16/101/24 14/97/23
f 15/99/24 17/103/25 18/105/25 16/101/24
f 17/103/25 19/107/26 20/109/26 18/105/25
f 19/107/26 21/111/27 22/113/27 20/109/26
f 21/111/27 23/115/28 24/117/28 22/113/27
f 23/115/28 25/119/29 26/121/29 24/117/28
f 25/119/29 27/123/30 28/125/30 26/121/29
f 27/123/30 29/127/31 30/129/31 28/125/30
f 29/127/31 31/131/32 32/133/32 30/129/31
f 31/131/32 33/135/1 34/137/1 32/133/32
f 33/135/1 35/139/2 36/141/2 34/137/1
f 35/139/2 37/143/3 38/145/3 36/141/2
f 37/143/3 39/147/4 40/149/4 38/145/3
f 39/147/4 41/151/5 42/153/5 40/149/4
f 41/151/5 43/155/6 44/157/6 42/153/5
f 43/155/6 45/159/7 46/161/7 44/157/6
f 45/159/7 47/163/8 48/165/8 46/161/7
f 47/163/8 49/167/9 50/169/9 48/165/8
f 49/167/9 51/171/10 52/173/10 50/169/9
f 51/171/10 53/175/11 54/177/11 52/173/10
f 53/175/11 55/179/12 56/181/12 54/177/11
f 55/179/12 57/183/13 58/185/13 56/181/12
f 57/183/13 59/187/14 60/189/14 58/185/13
f 59/187/14 61/71/15 62/72/15 60/189/14
